<?xml version="1.0" encoding="UTF-8" standalone="no"?>
<svg
   xmlns:dc="http://purl.org/dc/elements/1.1/"
   xmlns:cc="http://creativecommons.org/ns#"
   xmlns:rdf="http://www.w3.org/1999/02/22-rdf-syntax-ns#"
   xmlns:svg="http://www.w3.org/2000/svg"
   xmlns="http://www.w3.org/2000/svg"
   xmlns:sodipodi="http://sodipodi.sourceforge.net/DTD/sodipodi-0.dtd"
   xmlns:inkscape="http://www.inkscape.org/namespaces/inkscape"
   sodipodi:docname="storage-persistence-read-compatibility.svg"
   inkscape:version="1.0 (4035a4fb49, 2020-05-01)"
   id="svg8"
   version="1.1"
   viewBox="0 0 37.579014 37.00594"
   height="37.005939mm"
   width="37.579014mm">
  <defs
     id="defs2" />
  <sodipodi:namedview
     inkscape:window-maximized="1"
     inkscape:window-y="0"
     inkscape:window-x="0"
     inkscape:window-height="1058"
     inkscape:window-width="1920"
     fit-margin-bottom="0"
     fit-margin-right="0"
     fit-margin-left="0"
     fit-margin-top="0"
     showgrid="false"
     inkscape:document-rotation="0"
     inkscape:current-layer="layer1"
     inkscape:document-units="mm"
     inkscape:cy="236.69994"
     inkscape:cx="194.46895"
     inkscape:zoom="1.4"
     inkscape:pageshadow="2"
     inkscape:pageopacity="0.0"
     borderopacity="1.0"
     bordercolor="#666666"
     pagecolor="#ffffff"
     id="base" />
  <metadata
     id="metadata5">
    <rdf:RDF>
      <cc:Work
         rdf:about="">
        <dc:format>image/svg+xml</dc:format>
        <dc:type
           rdf:resource="http://purl.org/dc/dcmitype/StillImage" />
        <dc:title></dc:title>
      </cc:Work>
    </rdf:RDF>
  </metadata>
  <g
     transform="translate(-6.3281814,-4.9354157)"
     id="layer1"
     inkscape:groupmode="layer"
     inkscape:label="Layer 1">
    <path
       fill="#eeeeee"
       d="m 12.674982,17.398903 h 6.231143 v 6.115483 h -6.231143 z"
       fill-rule="evenodd"
       id="path838"
       style="stroke:none;stroke-width:0.153007;stroke-linecap:square;stroke-miterlimit:10" />
    <path
       stroke="#595959"
       stroke-width="0.153007"
       stroke-linejoin="round"
       stroke-linecap="butt"
       d="m 12.674982,17.398903 h 6.231143 v 6.115483 h -6.231143 z"
       fill-rule="evenodd"
       id="path840"
       style="fill:none;stroke-miterlimit:10" />
    <path
       fill="#000000"
       d="M 16.060653,21.515458 H 15.80962 v -1.599405 q -0.09084,0.08606 -0.239073,0.174524 -0.145835,0.08606 -0.262981,0.129099 V 19.97582 q 0.210384,-0.09802 0.368173,-0.239074 0.157794,-0.141058 0.222343,-0.272545 h 0.162571 z"
       fill-rule="nonzero"
       id="path842"
       style="stroke:none;stroke-width:0.153007;stroke-linecap:square;stroke-miterlimit:10" />
    <path
       fill="#d9ead3"
       d="m 18.906125,17.398903 h 6.231142 v 6.110665 h -6.231142 z"
       fill-rule="evenodd"
       id="path844"
       style="stroke:none;stroke-width:0.153007;stroke-linecap:square;stroke-miterlimit:10" />
    <path
       stroke="#595959"
       stroke-width="0.153007"
       stroke-linejoin="round"
       stroke-linecap="butt"
       d="m 18.906125,17.398903 h 6.231142 v 6.110665 h -6.231142 z"
       fill-rule="evenodd"
       id="path846"
       style="fill:none;stroke-miterlimit:10" />
    <path
       fill="#eeeeee"
       d="m 18.906125,11.28342 h 6.231142 v 6.115483 h -6.231142 z"
       fill-rule="evenodd"
       id="path848"
       style="stroke:none;stroke-width:0.153007;stroke-linecap:square;stroke-miterlimit:10" />
    <path
       stroke="#595959"
       stroke-width="0.153007"
       stroke-linejoin="round"
       stroke-linecap="butt"
       d="m 18.906125,11.28342 h 6.231142 v 6.115483 h -6.231142 z"
       fill-rule="evenodd"
       id="path850"
       style="fill:none;stroke-miterlimit:10" />
    <path
       fill="#000000"
       d="M 22.291795,15.399976 H 22.040762 V 13.80057 q -0.09085,0.08606 -0.239073,0.174524 -0.145835,0.08606 -0.262981,0.129099 v -0.243856 q 0.210385,-0.09802 0.368173,-0.239073 0.157794,-0.141058 0.222343,-0.272546 h 0.162571 z"
       fill-rule="nonzero"
       id="path852"
       style="stroke:none;stroke-width:0.153007;stroke-linecap:square;stroke-miterlimit:10" />
    <path
       fill="#eeeeee"
       d="m 25.137267,11.28342 h 6.231142 v 6.115483 h -6.231142 z"
       fill-rule="evenodd"
       id="path854"
       style="stroke:none;stroke-width:0.153007;stroke-linecap:square;stroke-miterlimit:10" />
    <path
       stroke="#595959"
       stroke-width="0.153007"
       stroke-linejoin="round"
       stroke-linecap="butt"
       d="m 25.137267,11.28342 h 6.231142 v 6.115483 h -6.231142 z"
       fill-rule="evenodd"
       id="path856"
       style="fill:none;stroke-miterlimit:10" />
    <path
       fill="#000000"
       d="m 28.895892,15.158508 v 0.241468 h -1.350773 q -0.0023,-0.09085 0.02868,-0.174524 0.05262,-0.138664 0.164965,-0.272546 0.114757,-0.133881 0.329924,-0.308405 0.332312,-0.272545 0.449457,-0.432728 0.117146,-0.160176 0.117146,-0.301228 0,-0.150618 -0.107581,-0.251033 -0.105197,-0.102798 -0.277327,-0.102798 -0.181695,0 -0.29167,0.109975 -0.107586,0.10758 -0.107586,0.29884 l -0.258198,-0.02631 q 0.02631,-0.289281 0.198431,-0.439899 0.174524,-0.150617 0.463805,-0.150617 0.294058,0 0.466194,0.162571 0.17213,0.16257 0.17213,0.404032 0,0.121928 -0.0502,0.241468 -0.0502,0.119539 -0.167354,0.251027 -0.114757,0.129098 -0.387302,0.358613 -0.224726,0.188865 -0.289275,0.258197 -0.06455,0.06694 -0.105198,0.133882 z"
       fill-rule="nonzero"
       id="path858"
       style="stroke:none;stroke-width:0.153007;stroke-linecap:square;stroke-miterlimit:10" />
    <path
       fill="#eeeeee"
       d="m 31.368409,11.28342 h 6.231142 v 6.115483 h -6.231142 z"
       fill-rule="evenodd"
       id="path860"
       style="stroke:none;stroke-width:0.153007;stroke-linecap:square;stroke-miterlimit:10" />
    <path
       stroke="#595959"
       stroke-width="0.153007"
       stroke-linejoin="round"
       stroke-linecap="butt"
       d="m 31.368409,11.28342 h 6.231142 v 6.115483 h -6.231142 z"
       fill-rule="evenodd"
       id="path862"
       style="fill:none;stroke-miterlimit:10" />
    <path
       fill="#000000"
       d="m 33.809733,14.859668 0.251029,-0.03348 q 0.04303,0.215167 0.145834,0.308406 0.105193,0.09324 0.253419,0.09324 0.176915,0 0.298844,-0.121928 0.121927,-0.121928 0.121927,-0.303622 0,-0.172136 -0.112364,-0.284499 -0.112366,-0.112363 -0.28689,-0.112363 -0.07172,0 -0.176914,0.02631 l 0.02869,-0.219949 q 0.02391,0.0023 0.04064,0.0023 0.16018,0 0.286889,-0.08367 0.1291,-0.08368 0.1291,-0.255815 0,-0.138658 -0.09324,-0.229509 -0.09324,-0.09085 -0.241466,-0.09085 -0.145835,0 -0.243856,0.09324 -0.09802,0.09085 -0.124319,0.274939 l -0.251026,-0.04545 q 0.04543,-0.251027 0.207993,-0.389691 0.162571,-0.138664 0.406427,-0.138664 0.167352,0 0.306014,0.07172 0.141055,0.07173 0.215168,0.196042 0.0765,0.124316 0.0765,0.26298 0,0.131493 -0.07172,0.241468 -0.07172,0.10758 -0.210385,0.17213 0.181696,0.04303 0.282107,0.17453 0.100411,0.131487 0.100411,0.329918 0,0.265374 -0.19604,0.451851 -0.19365,0.186478 -0.492494,0.186478 -0.270153,0 -0.447068,-0.160177 -0.176914,-0.160182 -0.203214,-0.415991 z"
       fill-rule="nonzero"
       id="path864"
       style="stroke:none;stroke-width:0.153007;stroke-linecap:square;stroke-miterlimit:10" />
    <path
       fill="#eeeeee"
       d="m 37.59955,11.28342 h 6.23114 v 6.115483 h -6.23114 z"
       fill-rule="evenodd"
       id="path866"
       style="stroke:none;stroke-width:0.153007;stroke-linecap:square;stroke-miterlimit:10" />
    <path
       stroke="#595959"
       stroke-width="0.153007"
       stroke-linejoin="round"
       stroke-linecap="butt"
       d="m 37.59955,11.28342 h 6.23114 v 6.115483 h -6.23114 z"
       fill-rule="evenodd"
       id="path868"
       style="fill:none;stroke-miterlimit:10" />
    <path
       fill="#000000"
       d="M 40.844166,15.399976 V 14.909875 H 39.9572 v -0.229514 l 0.93239,-1.324472 h 0.205604 v 1.324472 h 0.274936 v 0.229514 h -0.274936 v 0.490101 z m 0,-0.719615 v -0.920434 l -0.640719,0.920434 z"
       fill-rule="nonzero"
       id="path870"
       style="stroke:none;stroke-width:0.153007;stroke-linecap:square;stroke-miterlimit:10" />
    <path
       fill="#d9ead3"
       d="m 25.137267,17.400875 h 6.231142 v 6.110665 h -6.231142 z"
       fill-rule="evenodd"
       id="path872"
       style="stroke:none;stroke-width:0.153007;stroke-linecap:square;stroke-miterlimit:10" />
    <path
       stroke="#595959"
       stroke-width="0.153007"
       stroke-linejoin="round"
       stroke-linecap="butt"
       d="m 25.137267,17.400875 h 6.231142 v 6.110665 h -6.231142 z"
       fill-rule="evenodd"
       id="path874"
       style="fill:none;stroke-miterlimit:10" />
    <path
       fill="#f4cccc"
       d="m 31.368409,17.400482 h 6.231142 v 6.110659 h -6.231142 z"
       fill-rule="evenodd"
       id="path876"
       style="stroke:none;stroke-width:0.153007;stroke-linecap:square;stroke-miterlimit:10" />
    <path
       stroke="#595959"
       stroke-width="0.153007"
       stroke-linejoin="round"
       stroke-linecap="butt"
       d="m 31.368409,17.400482 h 6.231142 v 6.110659 h -6.231142 z"
       fill-rule="evenodd"
       id="path878"
       style="fill:none;stroke-miterlimit:10" />
    <path
       fill="#f4cccc"
       d="m 37.59955,17.400875 h 6.23114 v 6.110665 h -6.23114 z"
       fill-rule="evenodd"
       id="path880"
       style="stroke:none;stroke-width:0.153007;stroke-linecap:square;stroke-miterlimit:10" />
    <path
       stroke="#595959"
       stroke-width="0.153007"
       stroke-linejoin="round"
       stroke-linecap="butt"
       d="m 37.59955,17.400875 h 6.23114 v 6.110665 h -6.23114 z"
       fill-rule="evenodd"
       id="path882"
       style="fill:none;stroke-miterlimit:10" />
    <path
       fill="#eeeeee"
       d="m 12.674982,23.514386 h 6.231143 v 6.115483 h -6.231143 z"
       fill-rule="evenodd"
       id="path884"
       style="stroke:none;stroke-width:0.153007;stroke-linecap:square;stroke-miterlimit:10" />
    <path
       stroke="#595959"
       stroke-width="0.153007"
       stroke-linejoin="round"
       stroke-linecap="butt"
       d="m 12.674982,23.514386 h 6.231143 v 6.115483 h -6.231143 z"
       fill-rule="evenodd"
       id="path886"
       style="fill:none;stroke-miterlimit:10" />
    <path
       fill="#000000"
       d="m 16.433607,27.389474 v 0.241467 h -1.350772 q -0.0023,-0.09085 0.02868,-0.174524 0.05257,-0.138664 0.164965,-0.272545 0.114757,-0.133881 0.329924,-0.308405 0.332312,-0.272546 0.449457,-0.432728 0.117146,-0.160176 0.117146,-0.301234 0,-0.150612 -0.107581,-0.251027 -0.105198,-0.102798 -0.277327,-0.102798 -0.181695,0 -0.29167,0.109969 -0.107586,0.107586 -0.107586,0.298846 l -0.258198,-0.02631 q 0.02631,-0.289275 0.198431,-0.439892 0.174524,-0.150618 0.463805,-0.150618 0.294058,0 0.466194,0.162571 0.172129,0.162571 0.172129,0.404033 0,0.121928 -0.0502,0.241467 -0.0502,0.11954 -0.167353,0.251027 -0.114757,0.129099 -0.387302,0.358613 -0.224726,0.188866 -0.289275,0.258198 -0.06455,0.06694 -0.105198,0.133881 z"
       fill-rule="nonzero"
       id="path888"
       style="stroke:none;stroke-width:0.153007;stroke-linecap:square;stroke-miterlimit:10" />
    <path
       fill="#d9ead3"
       d="m 18.906125,23.514386 h 6.231142 v 6.110665 h -6.231142 z"
       fill-rule="evenodd"
       id="path890"
       style="stroke:none;stroke-width:0.153007;stroke-linecap:square;stroke-miterlimit:10" />
    <path
       stroke="#595959"
       stroke-width="0.153007"
       stroke-linejoin="round"
       stroke-linecap="butt"
       d="m 18.906125,23.514386 h 6.231142 v 6.110665 h -6.231142 z"
       fill-rule="evenodd"
       id="path892"
       style="fill:none;stroke-miterlimit:10" />
    <path
       fill="#d9ead3"
       d="m 25.137267,23.516358 h 6.231142 v 6.110665 h -6.231142 z"
       fill-rule="evenodd"
       id="path894"
       style="stroke:none;stroke-width:0.153007;stroke-linecap:square;stroke-miterlimit:10" />
    <path
       stroke="#595959"
       stroke-width="0.153007"
       stroke-linejoin="round"
       stroke-linecap="butt"
       d="m 25.137267,23.516358 h 6.231142 v 6.110665 h -6.231142 z"
       fill-rule="evenodd"
       id="path896"
       style="fill:none;stroke-miterlimit:10" />
    <path
       fill="#d9ead3"
       d="m 31.368409,23.515964 h 6.231142 v 6.110666 h -6.231142 z"
       fill-rule="evenodd"
       id="path898"
       style="stroke:none;stroke-width:0.153007;stroke-linecap:square;stroke-miterlimit:10" />
    <path
       stroke="#595959"
       stroke-width="0.153007"
       stroke-linejoin="round"
       stroke-linecap="butt"
       d="m 31.368409,23.515964 h 6.231142 v 6.110666 h -6.231142 z"
       fill-rule="evenodd"
       id="path900"
       style="fill:none;stroke-miterlimit:10" />
    <path
       fill="#f4cccc"
       d="m 37.59955,23.516358 h 6.23114 v 6.110665 h -6.23114 z"
       fill-rule="evenodd"
       id="path902"
       style="stroke:none;stroke-width:0.153007;stroke-linecap:square;stroke-miterlimit:10" />
    <path
       stroke="#595959"
       stroke-width="0.153007"
       stroke-linejoin="round"
       stroke-linecap="butt"
       d="m 37.59955,23.516358 h 6.23114 v 6.110665 h -6.23114 z"
       fill-rule="evenodd"
       id="path904"
       style="fill:none;stroke-miterlimit:10" />
    <path
       fill="#eeeeee"
       d="m 12.674982,29.631875 h 6.231143 v 6.115483 h -6.231143 z"
       fill-rule="evenodd"
       id="path906"
       style="stroke:none;stroke-width:0.153007;stroke-linecap:square;stroke-miterlimit:10" />
    <path
       stroke="#595959"
       stroke-width="0.153007"
       stroke-linejoin="round"
       stroke-linecap="butt"
       d="m 12.674982,29.631875 h 6.231143 v 6.115483 h -6.231143 z"
       fill-rule="evenodd"
       id="path908"
       style="fill:none;stroke-miterlimit:10" />
    <path
       fill="#000000"
       d="m 15.116306,33.208123 0.251033,-0.03348 q 0.04303,0.215167 0.145835,0.308406 0.105192,0.09324 0.253415,0.09324 0.176918,0 0.298846,-0.121928 0.121928,-0.121928 0.121928,-0.303623 0,-0.172136 -0.112369,-0.284499 -0.112363,-0.112363 -0.286887,-0.112363 -0.07172,0 -0.176912,0.02631 l 0.02868,-0.21995 q 0.02388,0.0023 0.04066,0.0023 0.160182,0 0.286892,-0.08368 0.129099,-0.08367 0.129099,-0.255803 0,-0.138664 -0.09324,-0.229515 -0.09324,-0.09085 -0.241468,-0.09085 -0.145835,0 -0.243856,0.09324 -0.09802,0.09085 -0.124316,0.274939 l -0.251027,-0.0454 q 0.04545,-0.251027 0.207996,-0.389691 0.16257,-0.138664 0.406426,-0.138664 0.167348,0 0.306012,0.07172 0.141058,0.07173 0.215166,0.196042 0.0765,0.124322 0.0765,0.26298 0,0.131493 -0.07172,0.241468 -0.07172,0.10758 -0.210384,0.17213 0.181694,0.04303 0.282104,0.174529 0.100415,0.131488 0.100415,0.329919 0,0.265374 -0.196042,0.451851 -0.193648,0.186478 -0.492494,0.186478 -0.270152,0 -0.44707,-0.160177 -0.176912,-0.160182 -0.203213,-0.415991 z"
       fill-rule="nonzero"
       id="path910"
       style="stroke:none;stroke-width:0.153007;stroke-linecap:square;stroke-miterlimit:10" />
    <path
       fill="#d9ead3"
       d="m 18.906125,29.631875 h 6.231142 v 6.110666 h -6.231142 z"
       fill-rule="evenodd"
       id="path912"
       style="stroke:none;stroke-width:0.153007;stroke-linecap:square;stroke-miterlimit:10" />
    <path
       stroke="#595959"
       stroke-width="0.153007"
       stroke-linejoin="round"
       stroke-linecap="butt"
       d="m 18.906125,29.631875 h 6.231142 v 6.110666 h -6.231142 z"
       fill-rule="evenodd"
       id="path914"
       style="fill:none;stroke-miterlimit:10" />
    <path
       fill="#d9ead3"
       d="m 25.137267,29.633847 h 6.231142 v 6.110666 h -6.231142 z"
       fill-rule="evenodd"
       id="path916"
       style="stroke:none;stroke-width:0.153007;stroke-linecap:square;stroke-miterlimit:10" />
    <path
       stroke="#595959"
       stroke-width="0.153007"
       stroke-linejoin="round"
       stroke-linecap="butt"
       d="m 25.137267,29.633847 h 6.231142 v 6.110666 h -6.231142 z"
       fill-rule="evenodd"
       id="path918"
       style="fill:none;stroke-miterlimit:10" />
    <path
       fill="#d9ead3"
       d="m 31.368409,29.633454 h 6.231142 v 6.110666 h -6.231142 z"
       fill-rule="evenodd"
       id="path920"
       style="stroke:none;stroke-width:0.153007;stroke-linecap:square;stroke-miterlimit:10" />
    <path
       stroke="#595959"
       stroke-width="0.153007"
       stroke-linejoin="round"
       stroke-linecap="butt"
       d="m 31.368409,29.633454 h 6.231142 v 6.110666 h -6.231142 z"
       fill-rule="evenodd"
       id="path922"
       style="fill:none;stroke-miterlimit:10" />
    <path
       fill="#d9ead3"
       d="m 37.59955,29.633847 h 6.23114 v 6.110666 h -6.23114 z"
       fill-rule="evenodd"
       id="path924"
       style="stroke:none;stroke-width:0.153007;stroke-linecap:square;stroke-miterlimit:10" />
    <path
       stroke="#595959"
       stroke-width="0.153007"
       stroke-linejoin="round"
       stroke-linecap="butt"
       d="m 37.59955,29.633847 h 6.23114 v 6.110666 h -6.23114 z"
       fill-rule="evenodd"
       id="path926"
       style="fill:none;stroke-miterlimit:10" />
    <path
       fill="#eeeeee"
       d="m 12.674982,35.749371 h 6.231143 v 6.115482 h -6.231143 z"
       fill-rule="evenodd"
       id="path928"
       style="stroke:none;stroke-width:0.153007;stroke-linecap:square;stroke-miterlimit:10" />
    <path
       stroke="#595959"
       stroke-width="0.153007"
       stroke-linejoin="round"
       stroke-linecap="butt"
       d="m 12.674982,35.749371 h 6.231143 v 6.115482 h -6.231143 z"
       fill-rule="evenodd"
       id="path930"
       style="fill:none;stroke-miterlimit:10" />
    <path
       fill="#000000"
       d="M 15.9196,39.865926 V 39.37582 h -0.886967 v -0.229514 l 0.932393,-1.324466 h 0.205601 v 1.324466 h 0.274934 v 0.229514 h -0.274934 v 0.490106 z m 0,-0.71962 v -0.920434 l -0.640723,0.920434 z"
       fill-rule="nonzero"
       id="path932"
       style="stroke:none;stroke-width:0.153007;stroke-linecap:square;stroke-miterlimit:10" />
    <path
       fill="#d9ead3"
       d="m 18.906125,35.749371 h 6.231142 v 6.110659 h -6.231142 z"
       fill-rule="evenodd"
       id="path934"
       style="stroke:none;stroke-width:0.153007;stroke-linecap:square;stroke-miterlimit:10" />
    <path
       stroke="#595959"
       stroke-width="0.153007"
       stroke-linejoin="round"
       stroke-linecap="butt"
       d="m 18.906125,35.749371 h 6.231142 v 6.110659 h -6.231142 z"
       fill-rule="evenodd"
       id="path936"
       style="fill:none;stroke-miterlimit:10" />
    <path
       fill="#d9ead3"
       d="m 25.137267,35.751337 h 6.231142 v 6.110665 h -6.231142 z"
       fill-rule="evenodd"
       id="path938"
       style="stroke:none;stroke-width:0.153007;stroke-linecap:square;stroke-miterlimit:10" />
    <path
       stroke="#595959"
       stroke-width="0.153007"
       stroke-linejoin="round"
       stroke-linecap="butt"
       d="m 25.137267,35.751337 h 6.231142 v 6.110665 h -6.231142 z"
       fill-rule="evenodd"
       id="path940"
       style="fill:none;stroke-miterlimit:10" />
    <path
       fill="#d9ead3"
       d="m 31.368409,35.750943 h 6.231142 v 6.110666 h -6.231142 z"
       fill-rule="evenodd"
       id="path942"
       style="stroke:none;stroke-width:0.153007;stroke-linecap:square;stroke-miterlimit:10" />
    <path
       stroke="#595959"
       stroke-width="0.153007"
       stroke-linejoin="round"
       stroke-linecap="butt"
       d="m 31.368409,35.750943 h 6.231142 v 6.110666 h -6.231142 z"
       fill-rule="evenodd"
       id="path944"
       style="fill:none;stroke-miterlimit:10" />
    <path
       fill="#d9ead3"
       d="m 37.59955,35.751337 h 6.23114 v 6.110665 h -6.23114 z"
       fill-rule="evenodd"
       id="path946"
       style="stroke:none;stroke-width:0.153007;stroke-linecap:square;stroke-miterlimit:10" />
    <path
       stroke="#595959"
       stroke-width="0.153007"
       stroke-linejoin="round"
       stroke-linecap="butt"
       d="m 37.59955,35.751337 h 6.23114 v 6.110665 h -6.23114 z"
       fill-rule="evenodd"
       id="path948"
       style="fill:none;stroke-miterlimit:10" />
    <path
       fill="#000000"
       fill-opacity="0"
       d="M 6.3281814,41.863246 V 17.401314 h 6.3468006 v 24.461932 z"
       fill-rule="evenodd"
       id="path950"
       style="stroke:none;stroke-width:0.153007;stroke-linecap:square;stroke-miterlimit:10" />
    <path
       fill="#000000"
       d="M 9.789689,37.912106 9.768176,37.658691 q 0.1530114,-0.01914 0.251027,-0.08368 0.09802,-0.06694 0.160183,-0.205601 0.05977,-0.141053 0.05977,-0.315577 0,-0.153011 -0.0454,-0.272545 Q 10.148306,36.661749 10.069434,36.60437 9.9881486,36.547 9.8925213,36.547 q -0.095633,0 -0.1673532,0.05737 -0.07172,0.055 -0.121928,0.181695 -0.031054,0.08368 -0.098021,0.36579 -0.069332,0.279716 -0.1290988,0.392079 -0.076503,0.148229 -0.1888716,0.219949 -0.1147513,0.07172 -0.2558093,0.07172 -0.1530057,0 -0.286887,-0.08846 -0.1362755,-0.08846 -0.2056015,-0.255809 -0.069332,-0.169742 -0.069332,-0.375349 0,-0.22712 0.074109,-0.39925 0.071726,-0.174524 0.2151664,-0.267763 0.141058,-0.09325 0.3203646,-0.100415 l 0.019142,0.258203 q -0.1936541,0.02151 -0.2916695,0.143441 -0.1004154,0.119539 -0.1004154,0.35383 0,0.24625 0.09085,0.358613 0.09085,0.112363 0.217555,0.112363 0.1099746,0 0.1793066,-0.08129 0.071726,-0.0765 0.1482288,-0.406427 0.074109,-0.329918 0.1290989,-0.451846 0.081285,-0.179306 0.2079958,-0.262986 0.1267105,-0.08606 0.2916695,-0.08606 0.1625704,0 0.3084054,0.09324 0.143446,0.09324 0.224732,0.267763 0.07889,0.174524 0.07889,0.394473 0,0.277322 -0.08128,0.466194 -0.08129,0.186477 -0.243856,0.294057 -0.162571,0.105198 -0.3681727,0.109975 z m 0.432728,-2.511205 0.222337,-0.03585 q 0.02151,0.105198 0.02151,0.188872 0,0.13627 -0.04303,0.212778 -0.04303,0.07411 -0.112362,0.105192 -0.07173,0.03106 -0.296452,0.03106 H 9.1609306 v 0.184089 H 8.9672766 V 35.902943 H 8.6014984 l -0.150617,-0.248639 h 0.5163952 v -0.253415 h 0.193654 v 0.253415 h 0.8678374 q 0.105192,0 0.136276,-0.01197 0.03105,-0.01434 0.0502,-0.04303 0.01671,-0.03111 0.01671,-0.08846 0,-0.04065 -0.0095,-0.109974 z m -0.5164017,-0.15237 q -0.4112091,0 -0.6072515,-0.22712 -0.164959,-0.19126 -0.164959,-0.466193 0,-0.306017 0.2008191,-0.499666 0.1984366,-0.193654 0.5522614,-0.193654 0.2844986,0 0.4494637,0.08607 0.16257,0.08607 0.253415,0.251027 0.09085,0.162571 0.09085,0.356225 0,0.310793 -0.198431,0.502053 -0.200824,0.19126 -0.5761677,0.19126 z m 0,-0.258197 q 0.2844987,0 0.4279397,-0.121934 0.141058,-0.124317 0.141058,-0.313182 0,-0.186478 -0.141058,-0.3108 -0.143441,-0.124316 -0.4351163,-0.124316 -0.2749336,0 -0.4159859,0.124316 -0.1410522,0.124322 -0.1410522,0.3108 0,0.188865 0.1410522,0.313182 0.1386639,0.121934 0.4231625,0.121934 z M 10.447142,33.570125 H 8.9672708 v -0.224732 h 0.2247317 q -0.1577881,-0.08607 -0.2079958,-0.157788 -0.050196,-0.07411 -0.050196,-0.162571 0,-0.12671 0.081285,-0.258203 l 0.2319026,0.08607 q -0.054996,0.09324 -0.054996,0.184089 0,0.08367 0.050196,0.148223 0.050196,0.06455 0.1362697,0.09324 0.1338814,0.04303 0.2940637,0.04303 h 0.7745993 z m -0.4757581,-1.966653 0.031112,-0.258203 q 0.22712,0.06216 0.353831,0.22712 0.124316,0.164965 0.124316,0.423162 0,0.325142 -0.198431,0.516401 -0.200825,0.188872 -0.5618263,0.188872 -0.375349,0 -0.5809506,-0.19126 -0.2056017,-0.193654 -0.2056017,-0.499671 0,-0.296452 0.2032133,-0.482929 0.2008192,-0.188866 0.5666031,-0.188866 0.023884,0 0.066944,0 v 1.104523 q 0.2438562,-0.01434 0.3753432,-0.138664 0.129104,-0.124317 0.129104,-0.308406 0,-0.138664 -0.07173,-0.236685 -0.07411,-0.09802 -0.2319021,-0.155394 z m -0.4064266,0.824807 v -0.827201 q -0.1864774,0.01671 -0.2797161,0.09563 -0.1458347,0.119534 -0.1458347,0.310794 0,0.172135 0.1171454,0.291669 0.1147571,0.117146 0.3084054,0.129105 z m 0.8821847,-2.602993 -1.4798712,0.564221 v -0.265374 l 0.8869676,-0.317971 q 0.1434464,-0.0502 0.2964516,-0.09563 -0.117145,-0.03105 -0.2797157,-0.09324 L 8.9672708,29.289761 v -0.258198 l 1.4798712,0.559432 z M 9.9713839,27.795548 10.002496,27.53735 q 0.22712,0.06216 0.353831,0.22712 0.124316,0.164959 0.124316,0.423162 0,0.325142 -0.198431,0.516402 -0.200825,0.188865 -0.561826,0.188865 -0.375349,0 -0.5809506,-0.19126 -0.2056017,-0.193648 -0.2056017,-0.499665 0,-0.296452 0.2032133,-0.482929 0.2008192,-0.188872 0.5666031,-0.188872 0.023884,0 0.066944,0 v 1.104529 q 0.2438559,-0.01434 0.3753429,-0.138664 0.129104,-0.124322 0.129104,-0.308406 0,-0.138663 -0.07173,-0.236685 -0.07411,-0.09802 -0.2319018,-0.155399 z m -0.4064266,0.824806 v -0.827195 q -0.1864774,0.01671 -0.2797161,0.09563 -0.1458347,0.11954 -0.1458347,0.3108 0,0.17213 0.1171454,0.291669 0.1147571,0.117146 0.3084054,0.129099 z M 10.447142,27.224052 H 8.9672708 V 26.99932 h 0.2247317 q -0.1577881,-0.08607 -0.2079958,-0.157788 -0.050196,-0.07411 -0.050196,-0.16257 0,-0.126711 0.081285,-0.258204 l 0.2319026,0.08607 q -0.054996,0.09324 -0.054996,0.184089 0,0.08367 0.050196,0.148223 0.050196,0.06455 0.1362697,0.09324 0.1338814,0.04303 0.2940637,0.04303 H 10.447131 Z M 10.004856,26.371481 9.966572,26.122849 q 0.148228,-0.01914 0.229515,-0.114757 0.0789,-0.09563 0.0789,-0.267763 0,-0.172136 -0.06933,-0.255809 -0.07173,-0.08368 -0.167353,-0.08368 -0.08368,0 -0.1338823,0.07412 -0.033483,0.0502 -0.083679,0.255809 -0.07172,0.277328 -0.1219279,0.384908 -0.050196,0.105192 -0.1386639,0.160182 -0.090845,0.055 -0.2008192,0.055 -0.098021,0 -0.1816949,-0.0454 -0.086068,-0.0454 -0.141058,-0.124322 -0.043025,-0.05737 -0.07172,-0.157788 -0.031054,-0.102804 -0.031054,-0.217561 0,-0.174518 0.050196,-0.306011 0.050196,-0.131493 0.1362755,-0.193649 0.086068,-0.06455 0.2295085,-0.08846 l 0.033483,0.24625 q -0.1147571,0.01671 -0.1793065,0.09802 -0.064549,0.0789 -0.064549,0.224732 0,0.174524 0.057367,0.248638 0.057367,0.07172 0.1338814,0.07172 0.047825,0 0.088456,-0.02868 0.040654,-0.03105 0.066944,-0.09802 0.014342,-0.03585 0.064549,-0.21995 0.069332,-0.267762 0.1147571,-0.372954 0.045396,-0.105198 0.1314872,-0.164965 0.086068,-0.05977 0.215167,-0.05977 0.126711,0 0.236685,0.07411 0.109975,0.07173 0.172136,0.21039 0.05977,0.138663 0.05977,0.313187 0,0.286887 -0.11954,0.439893 -0.119534,0.150617 -0.356219,0.19126 z M 8.6923372,24.843796 H 8.4030563 v -0.251027 h 0.2892809 z m 1.7548048,0 H 8.9672708 V 24.592769 H 10.447142 Z M 9.7060153,24.302852 q -0.4112091,0 -0.6072515,-0.22712 -0.164959,-0.19126 -0.164959,-0.466199 0,-0.306011 0.2008191,-0.49966 0.1984366,-0.193654 0.5522614,-0.193654 0.2844986,0 0.4494637,0.08607 0.16257,0.08607 0.253415,0.251027 0.09085,0.162571 0.09085,0.356219 0,0.310799 -0.198431,0.502059 -0.200824,0.19126 -0.5761677,0.19126 z m 0,-0.258203 q 0.2844987,0 0.4279397,-0.121928 0.141058,-0.124317 0.141058,-0.313188 0,-0.186478 -0.141058,-0.310794 -0.143441,-0.124316 -0.4351163,-0.124316 -0.2749336,0 -0.4159859,0.124316 -0.1410522,0.124316 -0.1410522,0.310794 0,0.188871 0.1410522,0.313188 0.1386639,0.121928 0.4231625,0.121928 z M 10.447142,22.622046 H 8.9672708 V 22.39732 h 0.21039 q -0.243856,-0.162571 -0.243856,-0.470982 0,-0.133881 0.047825,-0.246244 0.047825,-0.112363 0.1267105,-0.167354 0.076503,-0.05737 0.1840832,-0.07889 0.069332,-0.01434 0.243856,-0.01434 h 0.9108745 v 0.251026 H 9.5458446 q -0.1530056,0 -0.22712,0.03105 -0.076503,0.02868 -0.121928,0.102804 -0.045454,0.07411 -0.045454,0.174524 0,0.160176 0.1028037,0.277327 0.1004096,0.114752 0.3849082,0.114752 h 0.8080705 z"
       fill-rule="nonzero"
       id="path952"
       style="stroke:none;stroke-width:0.153007;stroke-linecap:square;stroke-miterlimit:10" />
    <path
       fill="#000000"
       fill-opacity="0"
       d="M 18.906125,4.9354157 H 43.83069 V 11.282217 H 18.906125 Z"
       fill-rule="evenodd"
       id="path954"
       style="stroke:none;stroke-width:0.153007;stroke-linecap:square;stroke-miterlimit:10" />
    <path
       fill="#000000"
       d="m 22.384507,8.0598291 q 0,-0.5092305 0.272545,-0.7961175 0.272546,-0.2892812 0.705267,-0.2892812 0.282111,0 0.509231,0.1362756 0.22712,0.1338813 0.346654,0.3777373 0.119539,0.2414618 0.119539,0.547479 0,0.3107937 -0.12671,0.5570439 -0.124317,0.2438559 -0.353831,0.3705664 -0.229508,0.1267047 -0.497271,0.1267047 -0.286893,0 -0.514013,-0.1386581 -0.22712,-0.141058 -0.344265,-0.3825198 -0.117146,-0.2414676 -0.117146,-0.5092303 z m 0.277328,0.00231 q 0,0.3705607 0.198431,0.583339 0.19843,0.2127784 0.499665,0.2127784 0.306011,0 0.502054,-0.2151667 0.196042,-0.2151667 0.196042,-0.6096399 0,-0.2486387 -0.08368,-0.4351161 -0.08367,-0.1864774 -0.246245,-0.2868928 -0.16257,-0.1027979 -0.36339,-0.1027979 -0.289281,0 -0.497276,0.1984308 -0.205602,0.1960424 -0.205601,0.6550652 z m 2.222745,0.992154 H 24.652678 V 7.0102096 h 0.251026 v 0.7291796 q 0.160183,-0.1984308 0.406427,-0.1984308 0.136275,0 0.258203,0.054996 0.121928,0.054996 0.20082,0.1553998 0.0789,0.098021 0.121933,0.2390736 0.0454,0.1410523 0.0454,0.3012345 0,0.3801257 -0.188866,0.5881215 -0.186478,0.2079959 -0.451852,0.2079959 -0.260592,0 -0.411209,-0.2199492 z M 24.88228,8.303601 q 0,0.2653743 0.07411,0.3849082 0.117146,0.193654 0.320359,0.193654 0.164965,0 0.284499,-0.1434464 0.119539,-0.1434463 0.119539,-0.4255508 0,-0.2892812 -0.114757,-0.427945 -0.114766,-0.138661 -0.279725,-0.138661 -0.16257,0 -0.284498,0.1434466 -0.11954,0.1434464 -0.11954,0.4135975 z M 26.24032,7.3018849 V 7.0102154 h 0.251027 V 7.3018849 Z M 25.92235,9.628076 25.97017,9.4152976 q 0.0765,0.019142 0.119534,0.019142 0.0765,0 0.112369,-0.050196 0.03823,-0.050196 0.03823,-0.2558093 v -1.553981 h 0.251027 v 1.5611514 q 0,0.2725452 -0.07172,0.3801314 Q 26.328759,9.6544 26.118375,9.6544 q -0.100409,0 -0.196042,-0.026313 z m 1.968226,-1.0495383 0.258197,0.031112 q -0.06215,0.2271201 -0.22712,0.3538306 -0.164959,0.1243163 -0.423162,0.1243163 -0.325142,0 -0.516396,-0.1984308 -0.188871,-0.2008249 -0.188871,-0.5618264 0,-0.3753431 0.19126,-0.5809508 0.193648,-0.2056016 0.499665,-0.2056016 0.296452,0 0.482929,0.2032133 0.188872,0.2008193 0.188872,0.5666032 0,0.023884 0,0.066944 h -1.104523 q 0.01434,0.243856 0.138664,0.375349 0.124316,0.1290988 0.3084,0.1290988 0.138664,0 0.236685,-0.071726 0.09802,-0.074109 0.1554,-0.2319026 z M 27.065769,8.1721168 h 0.827195 Q 27.876251,7.9856337 27.797337,7.8923949 27.677797,7.74656 27.486543,7.74656 q -0.172136,0 -0.291675,0.1171455 -0.117146,0.1147573 -0.129099,0.3084113 z m 2.364555,0.3394831 0.246244,0.033483 q -0.04065,0.2534152 -0.20799,0.39925 -0.164964,0.1434464 -0.40882,0.1434464 -0.303623,0 -0.487712,-0.1984308 -0.184084,-0.1984308 -0.184084,-0.5689973 0,-0.2414676 0.07889,-0.4207683 0.0789,-0.1793067 0.241467,-0.2677629 0.162571,-0.09085 0.353831,-0.09085 0.241462,0 0.394467,0.121928 0.153012,0.121928 0.196043,0.3466599 l -0.243856,0.035854 q -0.03585,-0.1482289 -0.124317,-0.2223435 -0.08846,-0.076503 -0.212778,-0.076503 -0.188866,0 -0.308405,0.1362757 -0.11954,0.1362697 -0.11954,0.4303334 0,0.2988403 0.114757,0.4351158 0.114757,0.1338814 0.298846,0.1338814 0.148223,0 0.246245,-0.09085 0.100409,-0.09085 0.12671,-0.2797161 z m 1.008896,0.3179704 0.03585,0.2223375 q -0.105192,0.021513 -0.188872,0.021513 -0.136269,0 -0.212772,-0.043025 -0.07411,-0.043025 -0.105198,-0.1123629 -0.03105,-0.07172 -0.03105,-0.296452 V 7.7680842 H 29.753089 V 7.5744359 h 0.184089 V 7.208652 l 0.248638,-0.1506173 v 0.5164012 h 0.253421 V 7.7680842 H 30.185816 V 8.635922 q 0,0.1051921 0.01197,0.1362755 0.01434,0.031054 0.04302,0.050196 0.03106,0.016713 0.08846,0.016713 0.04065,0 0.109975,-0.00954 z m 1.449894,0.2247259 -0.564216,-1.4798661 h 0.265373 l 0.317969,0.8869621 q 0.05021,0.1434464 0.09563,0.296452 0.03108,-0.1171455 0.09324,-0.2797161 l 0.327531,-0.903698 h 0.2582 l -0.559434,1.4798661 z m 2.029741,-0.4757585 0.2582,0.031112 q -0.06216,0.2271201 -0.227121,0.3538306 -0.164961,0.1243163 -0.423161,0.1243163 -0.325141,0 -0.5164,-0.1984308 -0.188869,-0.2008249 -0.188869,-0.5618264 0,-0.3753431 0.191259,-0.5809508 0.193651,-0.2056016 0.499666,-0.2056016 0.296452,0 0.48293,0.2032133 0.188868,0.2008193 0.188868,0.5666032 0,0.023884 0,0.066944 h -1.104523 q 0.01434,0.243856 0.138663,0.375349 0.124319,0.1290988 0.308406,0.1290988 0.138664,0 0.236683,-0.071726 0.09802,-0.074109 0.155399,-0.2319026 z M 33.094048,8.1721168 h 0.827197 Q 33.90451,7.9856337 33.825616,7.8923949 33.706078,7.74656 33.514819,7.74656 q -0.172133,0 -0.291671,0.1171455 -0.117145,0.1147573 -0.1291,0.3084113 z m 1.396306,0.8821794 V 7.5744301 h 0.22473 v 0.224726 q 0.08607,-0.1577882 0.157788,-0.2079901 0.07411,-0.050196 0.162571,-0.050196 0.126711,0 0.258201,0.081285 l -0.08607,0.2319026 q -0.09324,-0.054996 -0.184086,-0.054996 -0.08368,0 -0.148226,0.050196 -0.06455,0.050196 -0.09324,0.1362699 -0.04303,0.1338813 -0.04303,0.2940636 V 9.05429 Z m 0.852567,-0.4422867 0.248637,-0.038225 q 0.01912,0.1482231 0.114756,0.2295084 0.09563,0.078897 0.267763,0.078897 0.172134,0 0.255809,-0.069332 0.08368,-0.071726 0.08368,-0.1673531 0,-0.083674 -0.07411,-0.1338814 -0.05021,-0.033483 -0.255809,-0.083674 -0.277326,-0.071726 -0.38491,-0.121928 -0.105193,-0.050196 -0.160179,-0.1386638 -0.05499,-0.09085 -0.05499,-0.200825 0,-0.098021 0.04543,-0.181695 0.04543,-0.086068 0.124318,-0.1410523 0.05738,-0.043025 0.15779,-0.071726 0.102801,-0.031054 0.217557,-0.031054 0.174525,0 0.306015,0.050196 0.131491,0.050196 0.19365,0.1362698 0.06455,0.086068 0.08846,0.2295144 l -0.246245,0.033483 q -0.01674,-0.1147513 -0.09802,-0.1793067 -0.07889,-0.064549 -0.224729,-0.064549 -0.174524,0 -0.248638,0.057367 -0.07172,0.057367 -0.07172,0.1338815 0,0.047825 0.02869,0.088456 0.03108,0.040654 0.09802,0.066944 0.03586,0.014342 0.219948,0.064549 0.267763,0.069332 0.372956,0.1147571 0.105192,0.045396 0.16496,0.1314872 0.05977,0.086068 0.05977,0.2151667 0,0.1267105 -0.07411,0.2366851 -0.07172,0.1099746 -0.210386,0.1721357 -0.138663,0.059767 -0.313186,0.059767 -0.286889,0 -0.439897,-0.1195339 Q 35.383562,8.848735 35.34292,8.6120499 Z M 36.870605,7.2994908 V 7.0102154 h 0.251028 v 0.2892754 z m 0,1.7548054 V 7.5744301 h 0.251028 v 1.4798661 z m 0.540947,-0.7411271 q 0,-0.4112091 0.227122,-0.6072517 0.191259,-0.164959 0.466194,-0.164959 0.306015,0 0.499666,0.2008191 0.193649,0.1984368 0.193649,0.5522673 0,0.2844929 -0.08607,0.4494577 -0.08607,0.1625706 -0.251026,0.2534152 -0.162571,0.09085 -0.356222,0.09085 -0.310797,0 -0.502056,-0.1984308 -0.19126,-0.2008249 -0.19126,-0.5761681 z m 0.2582,0 q 0,0.2844986 0.121929,0.4279392 0.124319,0.141058 0.313187,0.141058 0.186478,0 0.310796,-0.141058 0.124319,-0.1434406 0.124319,-0.4351101 0,-0.2749394 -0.124319,-0.4159916 -0.124318,-0.1410524 -0.310796,-0.1410524 -0.188868,0 -0.313187,0.1410524 -0.121929,0.1386639 -0.121929,0.4231625 z m 1.422605,0.7411271 V 7.5744301 h 0.22473 v 0.2103842 q 0.16257,-0.2438559 0.470976,-0.2438559 0.133881,0 0.246247,0.047825 0.112364,0.047825 0.167352,0.1267105 0.05738,0.076503 0.07889,0.1840892 0.01434,0.069332 0.01434,0.2438559 V 9.0543078 H 40.043864 V 8.1529984 q 0,-0.1530057 -0.03108,-0.2271201 -0.02869,-0.076503 -0.102801,-0.1219282 -0.07411,-0.045396 -0.174525,-0.045396 -0.160179,0 -0.277326,0.1028037 -0.114756,0.1004098 -0.114756,0.3849084 v 0.8080707 z"
       fill-rule="nonzero"
       id="path956"
       style="stroke:none;stroke-width:0.153007;stroke-linecap:square;stroke-miterlimit:10" />
  </g>
</svg>
